<svg width="218" height="48" viewBox="0 0 218 48" fill="none" xmlns="http://www.w3.org/2000/svg">
<g clip-path="url(#clip0_23_271)">
<path d="M67.7861 7.41159C65.2352 7.41159 62.7769 7.7321 61.7757 8.00304C60.3186 8.41276 59.9551 9.05047 59.6809 10.3722L53.8985 37.0536C53.806 37.5988 53.7168 38.0547 53.7168 38.5107C53.7168 39.8324 54.5825 40.6948 55.9934 40.6948C57.5431 40.6948 58.1808 39.6936 58.498 38.144L60.1369 30.541C61.2735 30.6765 62.7769 30.8152 64.918 30.8152C74.3449 30.8152 80.2165 25.7169 80.2165 18.0214C80.2165 11.2808 75.5245 7.41159 67.7861 7.41159ZM64.69 26.4438C63.2329 26.4438 62.0929 26.3975 61.0488 26.2621L64.0986 12.1003C65.0535 11.9648 66.4677 11.7797 67.9249 11.7797C72.934 11.7797 75.4849 14.1489 75.4849 18.0643C75.4816 23.0735 71.837 26.4438 64.69 26.4438Z" fill="white"/>
<path d="M216.129 31.9056C215.356 31.9056 214.854 32.3616 213.899 33.409C212.214 35.1404 211.167 36.0954 209.848 36.0954C208.665 36.0954 208.028 35.1404 208.028 33.5908C208.028 32.7251 208.209 31.6776 208.437 30.541L210.122 22.6175H215.178C216.771 22.6175 217.729 21.7056 217.729 20.0667C217.729 19.1547 217.137 18.4741 215.773 18.4741H211.031L211.851 14.7866C211.943 14.2414 212.032 13.7391 212.032 13.2832C212.032 12.0077 211.167 11.0958 209.756 11.0958C208.252 11.0958 207.572 12.0969 207.251 13.6466L206.204 18.4741H204.063C202.424 18.4741 201.469 19.386 201.469 21.0249C201.469 21.9369 202.106 22.6175 203.471 22.6175H205.338L203.653 30.4485C203.471 31.3142 203.243 32.7251 203.243 34.1822C203.243 37.8697 205.156 40.556 209.253 40.556C211.623 40.556 213.714 39.3731 215.31 37.9589C216.86 36.5943 217.996 34.9091 217.996 33.8155C217.996 32.7713 217.177 31.9056 216.129 31.9056Z" fill="white"/>
<path d="M111.405 10.0979C111.405 8.77624 110.493 7.91054 109.083 7.91054C107.579 7.91054 106.898 8.91171 106.578 10.4614L100.888 36.9148C100.753 37.46 100.66 37.916 100.66 38.372C100.66 39.6936 101.572 40.556 102.937 40.556C104.486 40.556 105.167 39.5549 105.488 38.0052L111.177 11.5551C111.27 11.0066 111.405 10.5539 111.405 10.0979Z" fill="white"/>
<path d="M192.678 18.0181C185.392 18.0181 180.429 25.2576 180.429 32.1336C180.429 32.2625 180.433 32.3914 180.436 32.5169C179.293 34.2516 177.832 36.0491 176.831 36.0491C176.104 36.0491 175.83 35.3651 175.83 34.3177C175.83 33.0423 176.193 30.9012 176.603 29.0343L180.383 11.5485C180.476 11.0033 180.565 10.5473 180.565 10.0913C180.565 8.76963 179.699 7.90393 178.288 7.90393C176.739 7.90393 176.104 8.9051 175.784 10.4548L173.735 19.9246C172.641 18.788 171.045 18.0115 168.633 18.0115C163.796 18.0115 158.929 21.7353 157.032 27.4483C154.944 32.8473 153.077 36.0425 151.604 36.0425C151.058 36.0425 150.738 35.5865 150.738 34.8133C150.738 32.5367 152.013 26.9824 152.558 24.2961C152.74 23.2949 152.833 22.8852 152.833 22.2937C152.833 20.2914 149.509 17.9223 145.183 17.9223C140.181 17.9223 135.651 21.091 133.381 25.7962C130.007 31.757 126.911 36.0425 125.378 36.0425C124.694 36.0425 124.466 35.1768 124.284 34.3574L123.151 28.0827L130.116 22.3929C130.754 21.8477 131.573 21.0712 131.573 20.07C131.573 18.8408 130.754 18.0214 129.525 18.0214C128.613 18.0214 127.84 18.5666 127.067 19.2043L116.595 27.8547L120.101 11.5551C120.194 11.0099 120.329 10.5539 120.329 10.0979C120.329 8.77624 119.417 7.91054 118.006 7.91054C116.503 7.91054 115.822 8.91171 115.502 10.4614L109.812 36.9148C109.676 37.46 109.584 37.916 109.584 38.372C109.584 39.6936 110.496 40.556 111.861 40.556C113.41 40.556 114.091 39.5549 114.411 38.0052L115.142 34.592L119.421 31.1325L120.468 36.4126C120.878 38.5074 121.971 40.556 124.793 40.556C127.602 40.556 129.812 37.992 132.026 34.5259C132.697 38.1572 135.281 40.556 138.866 40.556C142.464 40.556 144.922 38.4149 146.515 35.5469V35.6394C146.515 38.6 148.018 40.556 150.658 40.556C153.047 40.556 155.03 39.1154 156.801 36.0557C157.805 38.7222 160.052 40.556 163.178 40.556C166.866 40.556 169.506 38.3257 171.191 35.2297V35.5039C171.191 38.7817 172.83 40.5593 175.516 40.5593C177.888 40.5593 179.904 39.1815 181.625 36.9412C182.934 39.1815 185.28 40.5593 188.449 40.5593C195.734 40.5593 200.697 33.3198 200.697 26.3975C200.694 21.5238 197.733 18.0181 192.678 18.0181ZM147.285 27.2632C145.963 32.9531 143.141 36.1879 139.953 36.1879C137.812 36.1879 136.629 34.549 136.629 32.0907C136.629 27.2632 140.135 22.0723 144.823 22.0723C146.234 22.0723 147.328 22.4821 148.283 23.0735L147.285 27.2632ZM172.645 24.8512C171.187 31.5455 167.863 36.1879 164.222 36.1879C162.22 36.1879 161.034 34.6382 161.034 32.0907C161.034 27.2203 164.404 22.1649 168.911 22.1649C170.642 22.1649 171.961 22.7563 172.919 23.5295L172.645 24.8512ZM188.991 36.1879C186.35 36.1879 185.257 34.2748 185.257 31.8627C185.257 27.445 188.307 22.3929 192.133 22.3929C194.773 22.3929 195.867 24.306 195.867 26.7181C195.867 31.1787 192.817 36.1879 188.991 36.1879Z" fill="white"/>
<path d="M91.5534 18.0181C84.2676 18.0181 79.3047 25.2576 79.3047 32.1336C79.3047 37.0503 82.2653 40.556 87.3174 40.556C94.6031 40.556 99.5661 33.3165 99.5661 26.3942C99.5661 21.5238 96.6055 18.0181 91.5534 18.0181ZM87.8659 36.1879C85.2258 36.1879 84.1321 34.2747 84.1321 31.8627C84.1321 27.445 87.1819 22.3928 91.0082 22.3928C93.6482 22.3928 94.7419 24.306 94.7419 26.718C94.7386 31.1787 91.6888 36.1879 87.8659 36.1879Z" fill="white"/>
<path d="M22.0295 10.2334C26.6702 10.2334 30.4321 8.04544 30.4321 5.34647C30.4321 2.6475 26.6702 0.459557 22.0295 0.459557C17.3889 0.459557 13.627 2.6475 13.627 5.34647C13.627 8.04544 17.3889 10.2334 22.0295 10.2334Z" fill="#E6007A"/>
<path d="M22.0295 47.0554C26.6702 47.0554 30.4321 44.8675 30.4321 42.1685C30.4321 39.4695 26.6702 37.2816 22.0295 37.2816C17.3889 37.2816 13.627 39.4695 13.627 42.1685C13.627 44.8675 17.3889 47.0554 22.0295 47.0554Z" fill="#E6007A"/>
<path d="M10.3206 16.998C12.6409 12.9792 12.6258 8.62668 10.2869 7.27628C7.94804 5.92588 4.17101 8.08903 1.85071 12.1078C-0.469604 16.1266 -0.454544 20.4792 1.88434 21.8296C4.22323 23.1799 8.00025 21.0168 10.3206 16.998Z" fill="#E6007A"/>
<path d="M42.2055 35.4068C44.5258 31.3881 44.512 27.0362 42.1747 25.6867C39.8374 24.3373 36.0616 26.5011 33.7413 30.5199C31.421 34.5387 31.4348 38.8905 33.7721 40.24C36.1094 41.5895 39.8852 39.4256 42.2055 35.4068Z" fill="#E6007A"/>
<path d="M10.2879 40.2389C12.6268 38.8885 12.6418 34.5359 10.3215 30.5172C8.00123 26.4984 4.2242 24.3352 1.88532 25.6856C-0.453568 27.036 -0.468627 31.3886 1.85168 35.4074C4.17199 39.4261 7.94902 41.5893 10.2879 40.2389Z" fill="#E6007A"/>
<path d="M42.1757 21.8306C44.513 20.4811 44.5268 16.1293 42.2064 12.1105C39.8861 8.09176 36.1104 5.92787 33.7731 7.27735C31.4358 8.62684 31.422 12.9787 33.7423 16.9974C36.0626 21.0162 39.8384 23.1801 42.1757 21.8306Z" fill="#E6007A"/>
</g>
<defs>
<clipPath id="clip0_23_271">
<rect width="217.872" height="46.5991" fill="white" transform="translate(0.123047 0.459557)"/>
</clipPath>
</defs>
</svg>
